<svg xmlns="http://www.w3.org/2000/svg" width="1440" height="900"><path d="M751,451L895,406L798,365Z" fill="#76c475" stroke="#76c475" stroke-width="1.51"/><path d="M895,406L856,345L798,365Z" fill="#79c576" stroke="#79c576" stroke-width="1.51"/><path d="M895,406L968,371L856,345Z" fill="#71c071" stroke="#71c071" stroke-width="1.51"/><path d="M751,451L862,589L895,406Z" fill="#60ba6c" stroke="#60ba6c" stroke-width="1.51"/><path d="M895,406L1019,440L968,371Z" fill="#65b66a" stroke="#65b66a" stroke-width="1.51"/><path d="M751,451L792,597L862,589Z" fill="#56b466" stroke="#56b466" stroke-width="1.51"/><path d="M1018,569L1019,440L895,406Z" fill="#52ad63" stroke="#52ad63" stroke-width="1.51"/><path d="M751,451L645,592L792,597Z" fill="#60ba6c" stroke="#60ba6c" stroke-width="1.51"/><path d="M621,343L627,487L751,451Z" fill="#86cc7e" stroke="#86cc7e" stroke-width="1.51"/><path d="M798,365L621,343L751,451Z" fill="#87cc7e" stroke="#87cc7e" stroke-width="1.51"/><path d="M703,177L621,343L798,365Z" fill="#9ed688" stroke="#9ed688" stroke-width="1.51"/><path d="M862,589L1018,569L895,406Z" fill="#4aad60" stroke="#4aad60" stroke-width="1.51"/><path d="M627,487L645,592L751,451Z" fill="#72c274" stroke="#72c274" stroke-width="1.51"/><path d="M856,345L789,198L798,365Z" fill="#8ece7f" stroke="#8ece7f" stroke-width="1.51"/><path d="M935,192L789,198L856,345Z" fill="#93cf80" stroke="#93cf80" stroke-width="1.51"/><path d="M968,371L935,192L856,345Z" fill="#81c576" stroke="#81c576" stroke-width="1.51"/><path d="M1052,247L935,192L968,371Z" fill="#82c075" stroke="#82c075" stroke-width="1.51"/><path d="M1019,440L1095,336L968,371Z" fill="#65b167" stroke="#65b167" stroke-width="1.51"/><path d="M1018,569L1094,493L1019,440Z" fill="#46a35a" stroke="#46a35a" stroke-width="1.51"/><path d="M862,589L906,709L1018,569Z" fill="#379d54" stroke="#379d54" stroke-width="1.51"/><path d="M1018,569L1096,552L1094,493Z" fill="#3a9b54" stroke="#3a9b54" stroke-width="1.51"/><path d="M796,721L906,709L862,589Z" fill="#3b9b53" stroke="#3b9b53" stroke-width="1.51"/><path d="M796,721L862,589L792,597Z" fill="#46a45b" stroke="#46a45b" stroke-width="1.51"/><path d="M789,198L703,177L798,365Z" fill="#a0d688" stroke="#a0d688" stroke-width="1.51"/><path d="M778,140L703,177L789,198Z" fill="#acdb90" stroke="#acdb90" stroke-width="1.51"/><path d="M645,592L796,721L792,597Z" fill="#51a960" stroke="#51a960" stroke-width="1.51"/><path d="M1094,493L1095,336L1019,440Z" fill="#58a861" stroke="#58a861" stroke-width="1.51"/><path d="M1034,692L1096,552L1018,569Z" fill="#2f934d" stroke="#2f934d" stroke-width="1.51"/><path d="M1094,493L1201,373L1095,336Z" fill="#5aa560" stroke="#5aa560" stroke-width="1.51"/><path d="M1095,336L1052,247L968,371Z" fill="#74b66d" stroke="#74b66d" stroke-width="1.51"/><path d="M645,592L622,725L796,721Z" fill="#55a65f" stroke="#55a65f" stroke-width="1.51"/><path d="M627,487L568,582L645,592Z" fill="#71c172" stroke="#71c172" stroke-width="1.51"/><path d="M476,443L568,582L627,487Z" fill="#85ca7b" stroke="#85ca7b" stroke-width="1.51"/><path d="M621,343L528,410L627,487Z" fill="#94d284" stroke="#94d284" stroke-width="1.51"/><path d="M530,379L528,410L621,343Z" fill="#a1d889" stroke="#a1d889" stroke-width="1.51"/><path d="M935,192L894,145L789,198Z" fill="#9cd286" stroke="#9cd286" stroke-width="1.51"/><path d="M986,91L894,145L935,192Z" fill="#9ace84" stroke="#9ace84" stroke-width="1.51"/><path d="M894,145L778,140L789,198Z" fill="#a5d78b" stroke="#a5d78b" stroke-width="1.51"/><path d="M563,254L530,379L621,343Z" fill="#abdc8d" stroke="#abdc8d" stroke-width="1.51"/><path d="M568,582L579,635L645,592Z" fill="#6db96d" stroke="#6db96d" stroke-width="1.51"/><path d="M473,641L579,635L568,582Z" fill="#73ba6e" stroke="#73ba6e" stroke-width="1.51"/><path d="M703,177L563,254L621,343Z" fill="#b0de90" stroke="#b0de90" stroke-width="1.51"/><path d="M906,709L1034,692L1018,569Z" fill="#2e914b" stroke="#2e914b" stroke-width="1.51"/><path d="M528,410L476,443L627,487Z" fill="#93d284" stroke="#93d284" stroke-width="1.51"/><path d="M530,379L476,443L528,410Z" fill="#a0d788" stroke="#a0d788" stroke-width="1.51"/><path d="M426,333L476,443L530,379Z" fill="#aadc8d" stroke="#aadc8d" stroke-width="1.51"/><path d="M579,635L622,725L645,592Z" fill="#64af66" stroke="#64af66" stroke-width="1.51"/><path d="M473,641L622,725L579,635Z" fill="#6bb068" stroke="#6bb068" stroke-width="1.51"/><path d="M703,177L647,130L563,254Z" fill="#bbe396" stroke="#bbe396" stroke-width="1.51"/><path d="M778,140L647,130L703,177Z" fill="#b5e096" stroke="#b5e096" stroke-width="1.51"/><path d="M705,-22L647,130L778,140Z" fill="#bbe29f" stroke="#bbe29f" stroke-width="1.51"/><path d="M1052,247L986,91L935,192Z" fill="#91c67d" stroke="#91c67d" stroke-width="1.51"/><path d="M1095,336L1104,192L1052,247Z" fill="#7cb66e" stroke="#7cb66e" stroke-width="1.51"/><path d="M1201,373L1104,192L1095,336Z" fill="#71af69" stroke="#71af69" stroke-width="1.51"/><path d="M906,709L1014,816L1034,692Z" fill="#248646" stroke="#248646" stroke-width="1.51"/><path d="M796,721L904,799L906,709Z" fill="#31914f" stroke="#31914f" stroke-width="1.51"/><path d="M801,821L904,799L796,721Z" fill="#338f4f" stroke="#338f4f" stroke-width="1.51"/><path d="M894,145L802,-2L778,140Z" fill="#acd994" stroke="#acd994" stroke-width="1.51"/><path d="M1104,192L986,91L1052,247Z" fill="#8dc078" stroke="#8dc078" stroke-width="1.51"/><path d="M1211,477L1201,373L1094,493Z" fill="#4b9d5a" stroke="#4b9d5a" stroke-width="1.51"/><path d="M1211,477L1094,493L1096,552Z" fill="#3f9a55" stroke="#3f9a55" stroke-width="1.51"/><path d="M663,801L801,821L796,721Z" fill="#409455" stroke="#409455" stroke-width="1.51"/><path d="M1264,599L1211,477L1096,552Z" fill="#31914f" stroke="#31914f" stroke-width="1.51"/><path d="M622,725L663,801L796,721Z" fill="#4d9c5b" stroke="#4d9c5b" stroke-width="1.51"/><path d="M423,586L473,641L568,582Z" fill="#7cc073" stroke="#7cc073" stroke-width="1.51"/><path d="M622,725L552,833L663,801Z" fill="#569d5d" stroke="#569d5d" stroke-width="1.51"/><path d="M563,254L426,333L530,379Z" fill="#b4e191" stroke="#b4e191" stroke-width="1.51"/><path d="M476,443L423,586L568,582Z" fill="#87ca7b" stroke="#87ca7b" stroke-width="1.51"/><path d="M455,179L426,333L563,254Z" fill="#c4e799" stroke="#c4e799" stroke-width="1.51"/><path d="M647,130L529,133L563,254Z" fill="#c5e79b" stroke="#c5e79b" stroke-width="1.51"/><path d="M586,-25L529,133L647,130Z" fill="#cdeaa7" stroke="#cdeaa7" stroke-width="1.51"/><path d="M904,799L1014,816L906,709Z" fill="#238647" stroke="#238647" stroke-width="1.51"/><path d="M1034,692L1153,717L1096,552Z" fill="#258645" stroke="#258645" stroke-width="1.51"/><path d="M1012,883L1014,816L904,799Z" fill="#1d7941" stroke="#1d7941" stroke-width="1.51"/><path d="M306,477L423,586L476,443Z" fill="#9ad385" stroke="#9ad385" stroke-width="1.51"/><path d="M1014,816L1153,717L1034,692Z" fill="#1c7d40" stroke="#1c7d40" stroke-width="1.51"/><path d="M853,-42L802,-2L894,145Z" fill="#abd99d" stroke="#abd99d" stroke-width="1.51"/><path d="M623,877L744,873L663,801Z" fill="#488e55" stroke="#488e55" stroke-width="1.51"/><path d="M663,801L744,873L801,821Z" fill="#408d52" stroke="#408d52" stroke-width="1.51"/><path d="M801,821L878,891L904,799Z" fill="#2b8349" stroke="#2b8349" stroke-width="1.51"/><path d="M529,133L455,179L563,254Z" fill="#cbea9d" stroke="#cbea9d" stroke-width="1.51"/><path d="M1104,192L1124,89L986,91Z" fill="#92c07b" stroke="#92c07b" stroke-width="1.51"/><path d="M986,91L853,-42L894,145Z" fill="#a2d392" stroke="#a2d392" stroke-width="1.51"/><path d="M1264,188L1124,89L1104,192Z" fill="#87b674" stroke="#87b674" stroke-width="1.51"/><path d="M744,873L878,891L801,821Z" fill="#33834b" stroke="#33834b" stroke-width="1.51"/><path d="M1322,300L1264,188L1201,373Z" fill="#6ba565" stroke="#6ba565" stroke-width="1.51"/><path d="M1201,373L1264,188L1104,192Z" fill="#77ae6b" stroke="#77ae6b" stroke-width="1.51"/><path d="M1153,717L1264,599L1096,552Z" fill="#238646" stroke="#238646" stroke-width="1.51"/><path d="M1101,33L1021,7L986,91Z" fill="#98c58c" stroke="#98c58c" stroke-width="1.51"/><path d="M802,-2L705,-22L778,140Z" fill="#b6dfa3" stroke="#b6dfa3" stroke-width="1.51"/><path d="M529,133L423,149L455,179Z" fill="#d5efa3" stroke="#d5efa3" stroke-width="1.51"/><path d="M759,-134L705,-22L802,-2Z" fill="#b8e0ab" stroke="#b8e0ab" stroke-width="1.51"/><path d="M1021,7L853,-42L986,91Z" fill="#a0cf97" stroke="#a0cf97" stroke-width="1.51"/><path d="M1153,717L1212,721L1264,599Z" fill="#18793e" stroke="#18793e" stroke-width="1.51"/><path d="M1163,832L1212,721L1153,717Z" fill="#10723b" stroke="#10723b" stroke-width="1.51"/><path d="M1163,832L1153,717L1014,816Z" fill="#11733c" stroke="#11733c" stroke-width="1.51"/><path d="M455,786L622,725L473,641Z" fill="#6bab66" stroke="#6bab66" stroke-width="1.51"/><path d="M455,786L552,833L622,725Z" fill="#61a261" stroke="#61a261" stroke-width="1.51"/><path d="M878,891L1012,883L904,799Z" fill="#207a42" stroke="#207a42" stroke-width="1.51"/><path d="M552,833L623,877L663,801Z" fill="#539459" stroke="#539459" stroke-width="1.51"/><path d="M744,873L822,1000L878,891Z" fill="#317c48" stroke="#317c48" stroke-width="1.51"/><path d="M1124,89L1101,33L986,91Z" fill="#95c184" stroke="#95c184" stroke-width="1.51"/><path d="M426,333L342,350L476,443Z" fill="#b4e092" stroke="#b4e092" stroke-width="1.51"/><path d="M288,220L342,350L426,333Z" fill="#cbea9c" stroke="#cbea9c" stroke-width="1.51"/><path d="M455,179L288,220L426,333Z" fill="#d2eda0" stroke="#d2eda0" stroke-width="1.51"/><path d="M464,-46L423,149L529,133Z" fill="#dcf1ae" stroke="#dcf1ae" stroke-width="1.51"/><path d="M1124,89L1241,-20L1101,33Z" fill="#90ba88" stroke="#90ba88" stroke-width="1.51"/><path d="M1322,300L1201,373L1344,486Z" fill="#54995b" stroke="#54995b" stroke-width="1.51"/><path d="M328,720L455,786L473,641Z" fill="#78b16c" stroke="#78b16c" stroke-width="1.51"/><path d="M552,833L538,895L623,877Z" fill="#579159" stroke="#579159" stroke-width="1.51"/><path d="M328,720L473,641L423,586Z" fill="#80bc72" stroke="#80bc72" stroke-width="1.51"/><path d="M1344,486L1201,373L1211,477Z" fill="#469758" stroke="#469758" stroke-width="1.51"/><path d="M705,-22L586,-25L647,130Z" fill="#c6e7ad" stroke="#c6e7ad" stroke-width="1.51"/><path d="M661,-94L586,-25L705,-22Z" fill="#c7e7b2" stroke="#c7e7b2" stroke-width="1.51"/><path d="M1012,883L1163,832L1014,816Z" fill="#146e3a" stroke="#146e3a" stroke-width="1.51"/><path d="M342,350L306,477L476,443Z" fill="#aedd8f" stroke="#aedd8f" stroke-width="1.51"/><path d="M1264,599L1344,486L1211,477Z" fill="#328c4e" stroke="#328c4e" stroke-width="1.51"/><path d="M1340,570L1344,486L1264,599Z" fill="#278449" stroke="#278449" stroke-width="1.51"/><path d="M1351,680L1264,599L1212,721Z" fill="#15763d" stroke="#15763d" stroke-width="1.51"/><path d="M1163,832L1250,751L1212,721Z" fill="#0a6e3a" stroke="#0a6e3a" stroke-width="1.51"/><path d="M1351,680L1340,570L1264,599Z" fill="#1c7941" stroke="#1c7941" stroke-width="1.51"/><path d="M422,876L538,895L552,833Z" fill="#60955d" stroke="#60955d" stroke-width="1.51"/><path d="M694,1058L822,1000L744,873Z" fill="#3a804d" stroke="#3a804d" stroke-width="1.51"/><path d="M759,-134L661,-94L705,-22Z" fill="#bfe3af" stroke="#bfe3af" stroke-width="1.51"/><path d="M1264,188L1267,90L1124,89Z" fill="#88b376" stroke="#88b376" stroke-width="1.51"/><path d="M1360,97L1267,90L1264,188Z" fill="#83ac72" stroke="#83ac72" stroke-width="1.51"/><path d="M878,891L902,1018L1012,883Z" fill="#1f7340" stroke="#1f7340" stroke-width="1.51"/><path d="M1012,883L1096,943L1163,832Z" fill="#116536" stroke="#116536" stroke-width="1.51"/><path d="M694,1058L744,873L623,877Z" fill="#448551" stroke="#448551" stroke-width="1.51"/><path d="M455,786L422,876L552,833Z" fill="#669d61" stroke="#669d61" stroke-width="1.51"/><path d="M274,598L328,720L423,586Z" fill="#8ac177" stroke="#8ac177" stroke-width="1.51"/><path d="M1045,-138L927,-128L1021,7Z" fill="#9dcb97" stroke="#9dcb97" stroke-width="1.51"/><path d="M1021,7L927,-128L853,-42Z" fill="#a3d29c" stroke="#a3d29c" stroke-width="1.51"/><path d="M853,-42L759,-134L802,-2Z" fill="#b2dca7" stroke="#b2dca7" stroke-width="1.51"/><path d="M1045,-138L1021,7L1078,-141Z" fill="#99c594" stroke="#99c594" stroke-width="1.51"/><path d="M927,-128L759,-134L853,-42Z" fill="#acdaa4" stroke="#acdaa4" stroke-width="1.51"/><path d="M306,477L274,598L423,586Z" fill="#96d082" stroke="#96d082" stroke-width="1.51"/><path d="M985,1038L1096,943L1012,883Z" fill="#166839" stroke="#166839" stroke-width="1.51"/><path d="M1163,832L1255,884L1250,751Z" fill="#046536" stroke="#046536" stroke-width="1.51"/><path d="M423,149L288,220L455,179Z" fill="#dbf1a5" stroke="#dbf1a5" stroke-width="1.51"/><path d="M201,333L200,482L306,477Z" fill="#b9e197" stroke="#b9e197" stroke-width="1.51"/><path d="M306,477L200,482L274,598Z" fill="#a4d68b" stroke="#a4d68b" stroke-width="1.51"/><path d="M273,122L288,220L423,149Z" fill="#e4f5ab" stroke="#e4f5ab" stroke-width="1.51"/><path d="M464,-46L529,133L586,-25Z" fill="#d7eeb6" stroke="#d7eeb6" stroke-width="1.51"/><path d="M1250,751L1351,680L1212,721Z" fill="#0d6f3a" stroke="#0d6f3a" stroke-width="1.51"/><path d="M1448,551L1440,448L1344,486Z" fill="#35814b" stroke="#35814b" stroke-width="1.51"/><path d="M1395,770L1351,680L1250,751Z" fill="#096737" stroke="#096737" stroke-width="1.51"/><path d="M822,1000L902,1018L878,891Z" fill="#277845" stroke="#277845" stroke-width="1.51"/><path d="M1322,300L1382,231L1264,188Z" fill="#72a366" stroke="#72a366" stroke-width="1.51"/><path d="M1436,313L1382,231L1322,300Z" fill="#679860" stroke="#679860" stroke-width="1.51"/><path d="M1440,448L1322,300L1344,486Z" fill="#4b8e56" stroke="#4b8e56" stroke-width="1.51"/><path d="M328,720L422,876L455,786Z" fill="#72a768" stroke="#72a768" stroke-width="1.51"/><path d="M538,895L694,1058L623,877Z" fill="#4e8955" stroke="#4e8955" stroke-width="1.51"/><path d="M559,-129L464,-46L586,-25Z" fill="#d7eeb9" stroke="#d7eeb9" stroke-width="1.51"/><path d="M559,-129L586,-25L661,-94Z" fill="#ceeab5" stroke="#ceeab5" stroke-width="1.51"/><path d="M927,-128L1200,-170L759,-134Z" fill="#a0ce9a" stroke="#a0ce9a" stroke-width="1.51"/><path d="M1078,-141L1021,7L1101,33Z" fill="#97c392" stroke="#97c392" stroke-width="1.51"/><path d="M1448,551L1344,486L1340,570Z" fill="#2b7f48" stroke="#2b7f48" stroke-width="1.51"/><path d="M1267,90L1241,-20L1124,89Z" fill="#8cb681" stroke="#8cb681" stroke-width="1.51"/><path d="M1360,97L1241,-20L1267,90Z" fill="#87ae7e" stroke="#87ae7e" stroke-width="1.51"/><path d="M1152,1051L1255,884L1096,943Z" fill="#095d33" stroke="#095d33" stroke-width="1.51"/><path d="M1096,943L1255,884L1163,832Z" fill="#095f34" stroke="#095f34" stroke-width="1.51"/><path d="M1382,231L1360,97L1264,188Z" fill="#7ba56c" stroke="#7ba56c" stroke-width="1.51"/><path d="M1440,448L1436,313L1322,300Z" fill="#589159" stroke="#589159" stroke-width="1.51"/><path d="M902,1018L985,1038L1012,883Z" fill="#1c6f3e" stroke="#1c6f3e" stroke-width="1.51"/><path d="M694,1058L985,1038L902,1018Z" fill="#287945" stroke="#287945" stroke-width="1.51"/><path d="M759,-134L559,-129L661,-94Z" fill="#c5e7b2" stroke="#c5e7b2" stroke-width="1.51"/><path d="M201,333L306,477L342,350Z" fill="#bee498" stroke="#bee498" stroke-width="1.51"/><path d="M274,598L207,657L328,720Z" fill="#8dbf79" stroke="#8dbf79" stroke-width="1.51"/><path d="M1045,-138L1200,-170L927,-128Z" fill="#98c492" stroke="#98c492" stroke-width="1.51"/><path d="M1241,-20L1078,-141L1101,33Z" fill="#92bc8e" stroke="#92bc8e" stroke-width="1.51"/><path d="M288,220L201,333L342,350Z" fill="#d1eda1" stroke="#d1eda1" stroke-width="1.51"/><path d="M201,218L201,333L288,220Z" fill="#def2a8" stroke="#def2a8" stroke-width="1.51"/><path d="M1431,87L1360,97L1382,231Z" fill="#7da06d" stroke="#7da06d" stroke-width="1.51"/><path d="M1588,317L1483,196L1436,313Z" fill="#66935e" stroke="#66935e" stroke-width="1.51"/><path d="M1351,680L1448,551L1340,570Z" fill="#1d7641" stroke="#1d7641" stroke-width="1.51"/><path d="M1442,695L1448,551L1351,680Z" fill="#176c3a" stroke="#176c3a" stroke-width="1.51"/><path d="M301,-52L273,122L423,149Z" fill="#ecf8b7" stroke="#ecf8b7" stroke-width="1.51"/><path d="M508,1070L694,1058L538,895Z" fill="#548b57" stroke="#548b57" stroke-width="1.51"/><path d="M822,1000L694,1058L902,1018Z" fill="#327d49" stroke="#327d49" stroke-width="1.51"/><path d="M200,482L197,572L274,598Z" fill="#a0d489" stroke="#a0d489" stroke-width="1.51"/><path d="M328,720L278,834L422,876Z" fill="#78a76a" stroke="#78a76a" stroke-width="1.51"/><path d="M105,603L197,572L200,482Z" fill="#a4d58c" stroke="#a4d58c" stroke-width="1.51"/><path d="M464,-46L301,-52L423,149Z" fill="#e7f6be" stroke="#e7f6be" stroke-width="1.51"/><path d="M559,-129L453,-94L464,-46Z" fill="#dcf1bc" stroke="#dcf1bc" stroke-width="1.51"/><path d="M197,572L207,657L274,598Z" fill="#97ca81" stroke="#97ca81" stroke-width="1.51"/><path d="M1255,884L1395,770L1250,751Z" fill="#006135" stroke="#006135" stroke-width="1.51"/><path d="M50,479L105,603L200,482Z" fill="#acd996" stroke="#acd996" stroke-width="1.51"/><path d="M273,122L201,218L288,220Z" fill="#e7f6ad" stroke="#e7f6ad" stroke-width="1.51"/><path d="M1395,770L1442,695L1351,680Z" fill="#0c6335" stroke="#0c6335" stroke-width="1.51"/><path d="M431,1058L508,1070L538,895Z" fill="#60905c" stroke="#60905c" stroke-width="1.51"/><path d="M239,840L278,834L328,720Z" fill="#7eab6f" stroke="#7eab6f" stroke-width="1.51"/><path d="M985,1038L1152,1051L1096,943Z" fill="#116436" stroke="#116436" stroke-width="1.51"/><path d="M1255,884L1366,922L1395,770Z" fill="#00552f" stroke="#00552f" stroke-width="1.51"/><path d="M1243,1068L1152,1051L985,1038Z" fill="#0d6034" stroke="#0d6034" stroke-width="1.51"/><path d="M1360,97L1365,-56L1241,-20Z" fill="#87ab85" stroke="#87ab85" stroke-width="1.51"/><path d="M1241,-20L1200,-170L1078,-141Z" fill="#90b98d" stroke="#90b98d" stroke-width="1.51"/><path d="M1483,196L1431,87L1382,231Z" fill="#779a68" stroke="#779a68" stroke-width="1.51"/><path d="M1483,196L1382,231L1436,313Z" fill="#6c9561" stroke="#6c9561" stroke-width="1.51"/><path d="M1538,407L1436,313L1440,448Z" fill="#4e8854" stroke="#4e8854" stroke-width="1.51"/><path d="M1538,407L1440,448L1448,551Z" fill="#3b814d" stroke="#3b814d" stroke-width="1.51"/><path d="M278,834L329,935L422,876Z" fill="#729a65" stroke="#729a65" stroke-width="1.51"/><path d="M694,1058L1243,1068L985,1038Z" fill="#1b6e3d" stroke="#1b6e3d" stroke-width="1.51"/><path d="M431,1058L538,895L422,876Z" fill="#63915d" stroke="#63915d" stroke-width="1.51"/><path d="M273,122L204,91L201,218Z" fill="#eff9b3" stroke="#eff9b3" stroke-width="1.51"/><path d="M301,-52L204,91L273,122Z" fill="#f3fbc0" stroke="#f3fbc0" stroke-width="1.51"/><path d="M207,657L239,840L328,720Z" fill="#85b473" stroke="#85b473" stroke-width="1.51"/><path d="M278,834L239,840L329,935Z" fill="#789e69" stroke="#789e69" stroke-width="1.51"/><path d="M1078,-141L1200,-170L1045,-138Z" fill="#95bf90" stroke="#95bf90" stroke-width="1.51"/><path d="M759,-134L361,-160L559,-129Z" fill="#d3edb8" stroke="#d3edb8" stroke-width="1.51"/><path d="M1312,-165L1200,-170L1241,-20Z" fill="#8bb28a" stroke="#8bb28a" stroke-width="1.51"/><path d="M1548,589L1538,407L1448,551Z" fill="#2e7b48" stroke="#2e7b48" stroke-width="1.51"/><path d="M361,-160L301,-52L453,-94Z" fill="#ebf7c3" stroke="#ebf7c3" stroke-width="1.51"/><path d="M453,-94L301,-52L464,-46Z" fill="#e7f5c1" stroke="#e7f5c1" stroke-width="1.51"/><path d="M1349,1051L1366,922L1255,884Z" fill="#00502d" stroke="#00502d" stroke-width="1.51"/><path d="M1395,770L1467,802L1442,695Z" fill="#055b31" stroke="#055b31" stroke-width="1.51"/><path d="M1431,87L1365,-56L1360,97Z" fill="#82a37b" stroke="#82a37b" stroke-width="1.51"/><path d="M1477,5L1365,-56L1431,87Z" fill="#81a07f" stroke="#81a07f" stroke-width="1.51"/><path d="M338,1053L431,1058L329,935Z" fill="#6f9662" stroke="#6f9662" stroke-width="1.51"/><path d="M329,935L431,1058L422,876Z" fill="#6b9561" stroke="#6b9561" stroke-width="1.51"/><path d="M1610,701L1548,589L1442,695Z" fill="#146637" stroke="#146637" stroke-width="1.51"/><path d="M1442,695L1548,589L1448,551Z" fill="#1b6e3d" stroke="#1b6e3d" stroke-width="1.51"/><path d="M1366,922L1467,802L1395,770Z" fill="#00522e" stroke="#00522e" stroke-width="1.51"/><path d="M120,874L158,901L239,840Z" fill="#80a170" stroke="#80a170" stroke-width="1.51"/><path d="M197,572L105,603L207,657Z" fill="#9bcb85" stroke="#9bcb85" stroke-width="1.51"/><path d="M77,344L200,482L201,333Z" fill="#c8e8a1" stroke="#c8e8a1" stroke-width="1.51"/><path d="M77,344L201,333L201,218Z" fill="#daf0a9" stroke="#daf0a9" stroke-width="1.51"/><path d="M78,189L77,344L201,218Z" fill="#e5f5b3" stroke="#e5f5b3" stroke-width="1.51"/><path d="M1200,-170L361,-160L759,-134Z" fill="#b6dfaa" stroke="#b6dfaa" stroke-width="1.51"/><path d="M559,-129L361,-160L453,-94Z" fill="#e0f3be" stroke="#e0f3be" stroke-width="1.51"/><path d="M301,-52L181,8L204,91Z" fill="#f7fcc9" stroke="#f7fcc9" stroke-width="1.51"/><path d="M1152,1051L1243,1068L1255,884Z" fill="#045a31" stroke="#045a31" stroke-width="1.51"/><path d="M508,1070L1243,1068L694,1058Z" fill="#317c48" stroke="#317c48" stroke-width="1.51"/><path d="M1561,84L1477,5L1431,87Z" fill="#7f9d76" stroke="#7f9d76" stroke-width="1.51"/><path d="M1538,407L1588,317L1436,313Z" fill="#588d58" stroke="#588d58" stroke-width="1.51"/><path d="M1548,589L1588,317L1538,407Z" fill="#428450" stroke="#428450" stroke-width="1.51"/><path d="M1365,-56L1312,-165L1241,-20Z" fill="#88ad87" stroke="#88ad87" stroke-width="1.51"/><path d="M1454,-144L1312,-165L1365,-56Z" fill="#84a584" stroke="#84a584" stroke-width="1.51"/><path d="M217,-93L181,8L301,-52Z" fill="#f7fccc" stroke="#f7fccc" stroke-width="1.51"/><path d="M204,91L78,189L201,218Z" fill="#f1f9b6" stroke="#f1f9b6" stroke-width="1.51"/><path d="M77,344L50,479L200,482Z" fill="#bee3a2" stroke="#bee3a2" stroke-width="1.51"/><path d="M1561,84L1431,87L1483,196Z" fill="#7c9c6c" stroke="#7c9c6c" stroke-width="1.51"/><path d="M190,1031L338,1053L329,935Z" fill="#759967" stroke="#759967" stroke-width="1.51"/><path d="M431,1058L338,1053L508,1070Z" fill="#68935f" stroke="#68935f" stroke-width="1.51"/><path d="M158,901L329,935L239,840Z" fill="#799b69" stroke="#799b69" stroke-width="1.51"/><path d="M77,344L-24,412L50,479Z" fill="#c5e6ae" stroke="#c5e6ae" stroke-width="1.51"/><path d="M49,70L78,189L204,91Z" fill="#f8fdc1" stroke="#f8fdc1" stroke-width="1.51"/><path d="M181,8L49,70L204,91Z" fill="#fafdc9" stroke="#fafdc9" stroke-width="1.51"/><path d="M361,-160L217,-93L301,-52Z" fill="#f2fac8" stroke="#f2fac8" stroke-width="1.51"/><path d="M1366,922L1512,877L1467,802Z" fill="#004a2b" stroke="#004a2b" stroke-width="1.51"/><path d="M1243,1068L1349,1051L1255,884Z" fill="#00542f" stroke="#00542f" stroke-width="1.51"/><path d="M62,719L207,657L105,603Z" fill="#96c384" stroke="#96c384" stroke-width="1.51"/><path d="M83,810L239,840L207,657Z" fill="#89b376" stroke="#89b376" stroke-width="1.51"/><path d="M9,606L62,719L105,603Z" fill="#9ac68e" stroke="#9ac68e" stroke-width="1.51"/><path d="M1477,5L1454,-144L1365,-56Z" fill="#829f81" stroke="#829f81" stroke-width="1.51"/><path d="M1617,240L1561,84L1483,196Z" fill="#769967" stroke="#769967" stroke-width="1.51"/><path d="M1588,317L1617,240L1483,196Z" fill="#6a9560" stroke="#6a9560" stroke-width="1.51"/><path d="M1610,701L1617,240L1588,317Z" fill="#468552" stroke="#468552" stroke-width="1.51"/><path d="M1475,1026L1512,877L1366,922Z" fill="#004529" stroke="#004529" stroke-width="1.51"/><path d="M1467,802L1610,701L1442,695Z" fill="#095d33" stroke="#095d33" stroke-width="1.51"/><path d="M1548,589L1610,701L1588,317Z" fill="#297945" stroke="#297945" stroke-width="1.51"/><path d="M1573,815L1610,701L1467,802Z" fill="#025831" stroke="#025831" stroke-width="1.51"/><path d="M158,901L190,1031L329,935Z" fill="#7a9b6a" stroke="#7a9b6a" stroke-width="1.51"/><path d="M83,810L120,874L239,840Z" fill="#83a774" stroke="#83a774" stroke-width="1.51"/><path d="M62,719L83,810L207,657Z" fill="#8eb87f" stroke="#8eb87f" stroke-width="1.51"/><path d="M62,719L-20,777L83,810Z" fill="#8bb486" stroke="#8bb486" stroke-width="1.51"/><path d="M50,479L9,606L105,603Z" fill="#a4d599" stroke="#a4d599" stroke-width="1.51"/><path d="M-24,412L9,606L50,479Z" fill="#b3dda6" stroke="#b3dda6" stroke-width="1.51"/><path d="M1512,877L1573,815L1467,802Z" fill="#004f2d" stroke="#004f2d" stroke-width="1.51"/><path d="M1604,899L1573,815L1512,877Z" fill="#004a2b" stroke="#004a2b" stroke-width="1.51"/><path d="M-37,357L-24,412L77,344Z" fill="#cfebb5" stroke="#cfebb5" stroke-width="1.51"/><path d="M1566,-123L1454,-144L1477,5Z" fill="#819e81" stroke="#819e81" stroke-width="1.51"/><path d="M43,-18L49,70L181,8Z" fill="#fdfdd6" stroke="#fdfdd6" stroke-width="1.51"/><path d="M-34,235L-37,357L77,344Z" fill="#dbf0bc" stroke="#dbf0bc" stroke-width="1.51"/><path d="M-34,235L77,344L78,189Z" fill="#e5f5bc" stroke="#e5f5bc" stroke-width="1.51"/><path d="M-126,672L-10,667L9,606Z" fill="#9ac694" stroke="#9ac694" stroke-width="1.51"/><path d="M9,606L-10,667L62,719Z" fill="#97c390" stroke="#97c390" stroke-width="1.51"/><path d="M99,1028L158,901L120,874Z" fill="#7f9d72" stroke="#7f9d72" stroke-width="1.51"/><path d="M-172,535L9,606L-24,412Z" fill="#afdba5" stroke="#afdba5" stroke-width="1.51"/><path d="M-62,891L120,874L83,810Z" fill="#84a57f" stroke="#84a57f" stroke-width="1.51"/><path d="M99,1028L190,1031L158,901Z" fill="#7f9d70" stroke="#7f9d70" stroke-width="1.51"/><path d="M1561,84L1575,-9L1477,5Z" fill="#809d7c" stroke="#809d7c" stroke-width="1.51"/><path d="M1617,240L1575,-9L1561,84Z" fill="#7e9c6e" stroke="#7e9c6e" stroke-width="1.51"/><path d="M1349,1051L1475,1026L1366,922Z" fill="#00492b" stroke="#00492b" stroke-width="1.51"/><path d="M-32,107L-34,235L78,189Z" fill="#f3fac8" stroke="#f3fac8" stroke-width="1.51"/><path d="M49,70L-32,107L78,189Z" fill="#f9fdca" stroke="#f9fdca" stroke-width="1.51"/><path d="M88,-113L43,-18L181,8Z" fill="#fdfed9" stroke="#fdfed9" stroke-width="1.51"/><path d="M88,-113L181,8L217,-93Z" fill="#fcfdd1" stroke="#fcfdd1" stroke-width="1.51"/><path d="M1475,1026L1604,899L1512,877Z" fill="#004529" stroke="#004529" stroke-width="1.51"/><path d="M1573,815L1604,899L1610,701Z" fill="#00532f" stroke="#00532f" stroke-width="1.51"/><path d="M-126,672L-20,777L-10,667Z" fill="#93bd8f" stroke="#93bd8f" stroke-width="1.51"/><path d="M-10,667L-20,777L62,719Z" fill="#91bb8c" stroke="#91bb8c" stroke-width="1.51"/><path d="M2,-36L-32,107L49,70Z" fill="#fefedb" stroke="#fefedb" stroke-width="1.51"/><path d="M-137,347L-124,418L-37,357Z" fill="#ceebb5" stroke="#ceebb5" stroke-width="1.51"/><path d="M43,-18L2,-36L49,70Z" fill="#fffee0" stroke="#fffee0" stroke-width="1.51"/><path d="M361,-160L88,-113L217,-93Z" fill="#f8fccd" stroke="#f8fccd" stroke-width="1.51"/><path d="M1575,-9L1566,-123L1477,5Z" fill="#819e81" stroke="#819e81" stroke-width="1.51"/><path d="M1617,240L1566,-123L1575,-9Z" fill="#809d7a" stroke="#809d7a" stroke-width="1.51"/><path d="M-62,891L99,1028L120,874Z" fill="#809d7b" stroke="#809d7b" stroke-width="1.51"/><path d="M190,1031L99,1028L338,1053Z" fill="#7b9b6b" stroke="#7b9b6b" stroke-width="1.51"/><path d="M88,-113L2,-36L43,-18Z" fill="#fefee0" stroke="#fefee0" stroke-width="1.51"/><path d="M-137,347L-37,357L-34,235Z" fill="#dbf0bc" stroke="#dbf0bc" stroke-width="1.51"/><path d="M-37,357L-124,418L-24,412Z" fill="#c9e8b3" stroke="#c9e8b3" stroke-width="1.51"/><path d="M-102,178L-34,235L-32,107Z" fill="#f3fbc9" stroke="#f3fbc9" stroke-width="1.51"/><path d="M-133,90L-102,178L-32,107Z" fill="#fafdce" stroke="#fafdce" stroke-width="1.51"/><path d="M-102,178L-137,347L-34,235Z" fill="#e7f5c1" stroke="#e7f5c1" stroke-width="1.51"/><path d="M1475,1026L1591,1044L1604,899Z" fill="#004529" stroke="#004529" stroke-width="1.51"/><path d="M1349,1051L1591,1044L1475,1026Z" fill="#004529" stroke="#004529" stroke-width="1.51"/><path d="M1243,1068L1591,1044L1349,1051Z" fill="#00492b" stroke="#00492b" stroke-width="1.51"/><path d="M-172,535L-24,412L-124,418Z" fill="#bce2ae" stroke="#bce2ae" stroke-width="1.51"/><path d="M-172,535L-126,672L9,606Z" fill="#a0ce9a" stroke="#a0ce9a" stroke-width="1.51"/><path d="M-20,777L-62,891L83,810Z" fill="#87ab86" stroke="#87ab86" stroke-width="1.51"/><path d="M-155,872L-62,891L-20,777Z" fill="#85a785" stroke="#85a785" stroke-width="1.51"/><path d="M-172,1007L-45,1035L-62,891Z" fill="#819e81" stroke="#819e81" stroke-width="1.51"/><path d="M-137,347L-172,535L-124,418Z" fill="#c1e4b0" stroke="#c1e4b0" stroke-width="1.51"/><path d="M-137,347L-133,90L-172,535Z" fill="#d9efba" stroke="#d9efba" stroke-width="1.51"/><path d="M-102,178L-133,90L-137,347Z" fill="#eff9c6" stroke="#eff9c6" stroke-width="1.51"/><path d="M2,-36L-133,90L-32,107Z" fill="#fefedb" stroke="#fefedb" stroke-width="1.51"/><path d="M-62,891L-45,1035L99,1028Z" fill="#819e81" stroke="#819e81" stroke-width="1.51"/><path d="M99,1028L-45,1035L338,1053Z" fill="#7e9d72" stroke="#7e9d72" stroke-width="1.51"/><path d="M338,1053L-45,1035L508,1070Z" fill="#779968" stroke="#779968" stroke-width="1.51"/><path d="M-177,777L-20,777L-126,672Z" fill="#8fb88c" stroke="#8fb88c" stroke-width="1.51"/><path d="M-172,535L-177,777L-126,672Z" fill="#98c492" stroke="#98c492" stroke-width="1.51"/><path d="M2,-36L-135,-51L-133,90Z" fill="#ffffe5" stroke="#ffffe5" stroke-width="1.51"/><path d="M88,-113L-63,-153L2,-36Z" fill="#ffffe4" stroke="#ffffe4" stroke-width="1.51"/><path d="M361,-160L-63,-153L88,-113Z" fill="#fdfed6" stroke="#fdfed6" stroke-width="1.51"/><path d="M-177,777L-155,872L-20,777Z" fill="#88ae88" stroke="#88ae88" stroke-width="1.51"/><path d="M-63,-153L-135,-51L2,-36Z" fill="#ffffe5" stroke="#ffffe5" stroke-width="1.51"/><path d="M-133,90L-135,-51L-172,535Z" fill="#f1fac8" stroke="#f1fac8" stroke-width="1.51"/><path d="M-63,-153L-139,-150L-135,-51Z" fill="#ffffe5" stroke="#ffffe5" stroke-width="1.51"/><path d="M-135,-51L-139,-150L-172,535Z" fill="#fbfdcf" stroke="#fbfdcf" stroke-width="1.51"/><path d="M-155,872L-172,1007L-62,891Z" fill="#819e81" stroke="#819e81" stroke-width="1.51"/><path d="M-177,777L-172,1007L-155,872Z" fill="#82a082" stroke="#82a082" stroke-width="1.51"/></svg>